<?xml version="1.0" encoding="UTF-8"?>
<svg version="1.1" viewBox="0 0 2048 503" width="1280" height="1280" xmlns="http://www.w3.org/2000/svg">
<path transform="translate(0)" d="m0 0h2048v503h-2048z"/>
<path transform="translate(432,11)" d="m0 0h8l-1 3-16 9-16 11-14 11-10 9-8 7-17 17-7 8-9 10-7 7-9 11-11 12-9 11-9 10-10 13-28 36-14 19-26 36-14 20-8 13-15 22-9 10-9 6-6 1-5-3-5-6 3-9 10-16 10-17 12-26 8-19 14-34 10-28 7-28 2-10v-22l-7 4-10 8-10 11-9 11-8 10-11 14-13 18-8 12-11 16-14 21-13 20-10 16-10 15-9 14-16 23-10 15-12 16-12 13-5 4h-6l-1-4 5-16 11-25 14-27 12-21 16-29 17-28 25-38 10-15 14-18 8-11 8-9 7-8 22-22 14-10 11-5 8-2 8 1 6 4 6 7 2 10-1 16-5 21-14 37-10 24-12 25-5 13 6-5 11-14 14-17 11-14 11-12 10-13 10-11 7-8 12-14 69-69 11-9 13-11 17-12 20-12z" fill="#FEFFFE"/>
<path transform="translate(1783,19)" d="m0 0h8l5 4 4 7 1 6-3 8-12 17-14 19-12 16v1l11 2 27 1 5 1 34 1 4 1 35 1 4 1 28 2 32 1 3 1 22 2-1 4h-25l-34-2h-18l-1-1h-115l-1 1-22 1-13 19-14 19-8 11-14 19-10 14-9 12-26 36-13 19-17 25-13 19-14 20-12 17-11 17-18 28-12 23-8 16-5 14-1 12-4 9-4 3-15-1-6-4-3-6 4-7 13-13 14-21 15-24 8-14 9-16 16-26 17-29 12-20 10-17 9-16 9-15 19-32 31-51 9-14 12-20 3-6-7 1-33 1-37 2-8 1-49 3-6 1-34 1-9 1-10-3-8-7-4-7-1-5 4-6 4-5 4-2h38l12 1 29 1 6 1 62 1 9 1h51l2-6 12-20 10-15 13-21 4-5 12-7z" fill="#FEFFFE"/>
<path transform="translate(432,174)" d="m0 0 5 1 6 5 1 5-11 14-8 10-11 16-5 4-5 5-10 13-13 22-5 10-5 20 12-3 15-8 10-8 17-17v-2l-8-6-5-8-2-3v-7l2-3 4 1 5 9 8 7 5 1 8-9 10-15 5-11 4-12v-6l-2-5 2-1 3 1 1 5v11l-4 15-2 10-6 14-4 7 5 1 3 1h8l18-4 10-6 8-2 13-22 8-12 12-17 9-11 7-6 7-3 9-1 6 5 3 5-1 9-5 12-11 21-12 19-11 18-8 12-3 4v2l9-6 10-9 28-22 13-10 19-14 17-12 15-10 21-11h8v3l-10 6-12 7-12 8-26 20-13 12-10 9-12 11-12 12-8 7-9 10-10 9-11 9-12 10-7 4-16 1-5-5-5-6-1-6 3-12 12-26 7-14-20 7-18 3-13 1-8 9-10 13-19 19-14 10-17 8-15 4-9-2-12-8-4-6-1-4v-15l4-16 10-21 10-16 14-19 11-13 7-8 10-10 13-10 14-7z" fill="#FDFEFD"/>
<path transform="translate(1335,172)" d="m0 0h7l9 3 10 8 4 6v10l-4 11-9 10-13 13-14 10-16 9-19 9-25 9-16 4-7-1-4-3-10 11-9 16 1 6 4 3 16 2 8 2 4-1 17-1 25-6 23-7 23-10 8-4 4 1-2 4-8 5-38 19-29 11-21 7-27 6h-19l-11-4-10-8-6-9-1-8 4-15 8-16 8-11 12-14 20-20 11-9 15-12 18-12 19-11 18-8 14-4z" fill="#FEFFFE"/>
<path transform="translate(1804,174)" d="m0 0 6 1 5 6v6l-12 14-13 18-6 8-7 5-10 14-9 14-8 14-5 16-2 9 12-3 15-8 10-8 17-17v-2l-6-4-5-6-5-9 1-6 2-2 4 1 5 9 7 6 6 2 8-9 12-18 6-19v-13l2-1 2 1v21l-3 12-2 10-10 20 8 2h8l10-3 10-2 10-6h5l2 4-5 4-21 8-19 3-13 1-7 8-11 14-17 17-14 11-16 8-13 4-10 1-8-4-8-6-4-6-1-4v-15l4-16 11-23 9-14 14-19 14-17 15-15 15-11 11-5z" fill="#FEFFFE"/>
<path transform="translate(1470,174)" d="m0 0 8 1 5 6 2 3-1 9-12 25-13 22-9 14-9 15-7 10-1 2 7-4 13-11 12-10 13-10 17-13 14-10 19-14 20-13 16-8 9-1 1 3-14 8-10 6-20 14-17 14-8 7-12 11-10 9-13 13-8 7-20 20-11 9-10 9-10 6-10 2h-8l-8-9-2-4 1-10 4-12 9-19 9-17-4 1-15 9-2-1 1-5 13-10 11-9 6-5 10-13 12-18 12-16 8-8 8-4z" fill="#FEFFFE"/>
<path transform="translate(973,176)" d="m0 0 4 2 3 6v12l-8 16-17 29-8 13-12 21-1 2 11-8 11-10 20-15 14-11 10-8 23-16 12-7h8l-5 5-20 12-17 13-15 13-20 20-9 11-17 17-9 11-11 11-9 6-7 2h-11l-7-6-2-5 1-15 9-20 10-18 16-26 13-19 14-19 11-11 10-6z" fill="#FEFFFE"/>
<path transform="translate(810,174)" d="m0 0h13l9 3 8 7 5 10-1 1-7-1-5-2h-13l-12 5-16 11-16 12-14 12-10 9-10 10-13 17-7 12-5 13v4l2 1h8l21-7 16-7h5l-1 4-15 15-14 10-17 9-11 3h-9l-8-5-6-5-5-10 1-10 6-18 7-13 12-16 12-14 16-16 8-7 15-12 15-10 16-9 14-5z" fill="#FEFFFE"/>
<path transform="translate(1176,197)" d="m0 0h8l4 2v2l-22 12-14 8-19 13-14 11-16 13-11 9-11 10-8 7-10 9-8 7-12 11-11 9-6 4-7 2h-9l-9-9v-9l5-13 10-19 12-18 13-17 26-36 2-2 6 1 1 1v8l-6 18-15 34-3 9 17-13 36-26 21-14 22-12 23-11z" fill="#FEFFFE"/>
<path transform="translate(444,33)" d="m0 0 4 2-15 30-10 18-9 15-14 21-13 19-14 20-17 25-10 14-12 16-14 19-13 18-15 20-12 17-11 15-19 28-26 39-14 23-8 13-14 25-10 21-4 12-4 13-3 5-5 3-6 2-5 1-6-4-5-3v-9l3-9 14-22 10-15 12-16 12-18 16-23 10-14 8-11 13-18 10-14 14-18 14-19 11-14 12-15 11-14 12-14 14-20 10-13 21-28 12-17 15-22 16-24 6-11 4-5 12-23 9-19z" fill="#FEFFFE"/>
<path transform="translate(1193,207)" d="m0 0 4 1-1 9-5 15-8 16-9 17-16 27-10 16-8 13-12 21-24 45-6 17-3 5-5 2h-11l-6-4-4-5 3-9 12-19 11-17 10-16 18-27 14-19 11-16 12-17 13-20 9-14 8-16z" fill="#FEFFFE"/>
<path transform="translate(682,206)" d="m0 0 5 2 1 3-10 16-11 16-14 19-21 32-12 23-10 26-9 27-5 6-3 1h-14l-6-8-1-6 6-11 16-26 14-21 10-14 14-18 22-28 9-12 13-19z" fill="#FEFFFE"/>
<path transform="translate(1591,206)" d="m0 0 6 2 1 2-11 18-11 16-11 15-15 22-9 14-12 23-11 30-7 21-4 6-5 2h-13l-6-7-1-8 9-16 11-17 10-16 12-17 16-21 11-14 13-16 10-14 12-17z" fill="#FEFFFE"/>
<path transform="translate(822,241)" d="m0 0 7 1 1 1-1 8-8 15-12 18-6 12-2 9 2 6 5 2 3 1h14l24-9 5-1 1 4-11 7-15 7-16 5-10 1-13-5-7-6-3-7v-14l6-15 5-9-1-4-1-3 4-4 21-13z" fill="#FEFFFE"/>
<path transform="translate(1327,202)" d="m0 0h12l2 1-1 5-11 12-11 9-19 12-16 9-30 12-11 6h-2l2-5 13-13 8-7 16-13 24-16 14-8z"/>
<path transform="translate(2e3 103)" d="m0 0 9 1 5 4 3 9v7l-5 7-4 1-10-5-9-6-11-2-1-1v-6l1-1 13-1z" fill="#FEFFFE"/>
<path transform="translate(1892,231)" d="m0 0h7l-2 4-5 6-2 1h-6v-3z" fill="#FEFFFE"/>
<path transform="translate(1367,270)" d="m0 0h5l-2 4-3 3-5 1-2-1 2-4z" fill="#FEFFFE"/>
<path transform="translate(1582,183)" d="m0 0h5v3l-2 1h-7l-2-2z" fill="#FEFFFE"/>
<path transform="translate(670,183)" d="m0 0h7v3l-2 1h-7v-3z" fill="#FEFFFE"/>
</svg>
